<svg width="115" height="13" viewBox="0 0 115 13" fill="none" xmlns="http://www.w3.org/2000/svg">
  <path fill-rule="evenodd" clip-rule="evenodd" d="M83.988 5.98799V12H81.162V5.98799C81.162 2.98199 83.466 0.317993 86.544 0.317993C89.622 0.317993 91.926 2.98199 91.926 5.98799V12H89.1V5.98799C89.1 4.54799 88.056 3.16199 86.544 3.16199C85.032 3.16199 83.988 4.54799 83.988 5.98799ZM25.398 12V9.42599H30.528V12H33.372V6.02399C33.372 2.87399 30.942 0.335993 27.954 0.335993C24.966 0.335993 22.536 2.87399 22.536 6.02399V12H25.398ZM3.31201 7.73399V12H0.450012V0.605993H3.31201V4.87199H7.74001V0.605993H10.602V12H7.74001V7.73399H3.31201ZM21.636 9.13799V12H16.92C13.824 12 11.502 9.31799 11.502 6.31199C11.502 3.28799 13.824 0.605993 16.92 0.605993H21.636V3.46799H16.92C15.966 3.46799 15.138 4.06199 14.706 4.87199H19.494V7.73399H14.706C15.138 8.56199 15.966 9.13799 16.92 9.13799H21.636ZM25.398 6.58199H30.528V6.02399C30.528 4.45799 29.376 3.17999 27.954 3.17999C26.55 3.17999 25.398 4.45799 25.398 6.02399V6.58199ZM39.69 12C42.678 12 45.108 9.44399 45.108 6.31199C45.108 3.16199 42.678 0.605993 39.69 0.605993H34.272V12H39.69ZM37.134 9.13799H39.69C41.112 9.13799 42.264 7.87799 42.264 6.31199C42.264 4.74599 41.112 3.46799 39.69 3.46799H37.134V9.13799ZM48.834 12V9.60599H52.326C54.774 9.60599 56.592 7.53599 56.592 5.15999C56.592 2.78399 54.774 0.695993 52.326 0.695993H46.008V12H48.834ZM48.834 6.77999H52.326C53.19 6.77999 53.766 5.95199 53.766 5.15999C53.766 4.36799 53.19 3.52199 52.326 3.52199H48.834V6.77999ZM60.354 12V7.73399H64.782V12H67.644V0.605993H64.782V4.87199H60.354V0.605993H57.492V12H60.354ZM80.262 6.36599C80.262 9.60599 77.706 12.378 74.412 12.378C71.118 12.378 68.544 9.60599 68.544 6.36599C68.544 3.10799 71.118 0.353993 74.412 0.353993C77.706 0.353993 80.262 3.10799 80.262 6.36599ZM74.412 9.53399C72.666 9.53399 71.37 8.03999 71.37 6.36599C71.37 4.67399 72.684 3.17999 74.412 3.17999C76.14 3.17999 77.436 4.67399 77.436 6.36599C77.436 8.03999 76.14 9.53399 74.412 9.53399ZM102.96 12V9.13799H98.244C97.29 9.13799 96.462 8.56199 96.03 7.73399H100.818V4.87199H96.03C96.462 4.06199 97.29 3.46799 98.244 3.46799H102.96V0.605993H98.244C95.148 0.605993 92.826 3.28799 92.826 6.31199C92.826 9.31799 95.148 12 98.244 12H102.96ZM109.53 9.10199C108.954 10.632 107.352 12 105.66 12H103.86V9.17399H105.66C106.128 9.17399 106.722 8.50799 106.866 8.11199L108.558 3.59399C109.152 1.99199 110.862 0.695993 112.59 0.695993H114.57V3.52199H112.59C112.05 3.52199 111.384 4.09799 111.204 4.58399L109.53 9.10199Z" fill="white"/>
  </svg>
  